<?xml version="1.0" standalone="no"?>
<!DOCTYPE svg PUBLIC "-//W3C//DTD SVG 20010904//EN"
 "http://www.w3.org/TR/2001/REC-SVG-20010904/DTD/svg10.dtd">
<svg version="1.0" xmlns="http://www.w3.org/2000/svg"
 width="391.000000pt" height="391.000000pt" viewBox="0 0 391.000000 391.000000"
 preserveAspectRatio="xMidYMid meet">
<metadata>
Created by potrace 1.14, written by Peter Selinger 2001-2017
</metadata>
<g transform="translate(0.000000,391.000000) scale(0.100000,-0.100000)"
fill="#000000" stroke="none">
<path d="M548 3675 c-2 -2 -30 -6 -63 -9 -33 -4 -69 -9 -80 -12 -11 -2 -48 -6
-83 -8 -61 -3 -94 -17 -78 -33 4 -5 53 -8 109 -8 l102 0 -4 -35 c-2 -19 -5
-55 -5 -79 -1 -38 -5 -45 -31 -56 -31 -14 -30 -17 7 -19 20 -1 22 -7 23 -71 2
-86 1 -81 22 -89 25 -10 33 12 33 92 0 50 4 72 13 73 6 0 34 2 61 4 69 5 82
11 65 31 -10 13 -27 15 -76 11 l-63 -4 -1 46 c0 25 -3 58 -5 74 -4 25 -2 27
33 28 198 5 235 8 249 20 13 11 13 14 -1 28 -12 12 -39 16 -120 17 -57 1 -105
0 -107 -1z"/>
<path d="M2337 3674 c-1 -2 -25 -5 -52 -8 -28 -3 -68 -8 -90 -11 -22 -3 -64
-7 -93 -9 -53 -4 -83 -18 -68 -33 4 -5 53 -8 109 -8 l102 0 -4 -45 c-2 -25 -4
-60 -5 -79 -1 -25 -7 -36 -24 -42 -29 -11 -28 -29 1 -26 21 2 22 -1 19 -65 -1
-50 2 -70 14 -82 32 -33 44 -10 44 92 0 42 4 62 13 63 6 0 34 2 61 4 69 5 82
11 65 31 -10 13 -27 15 -76 11 l-63 -4 -1 41 c0 22 -2 56 -5 74 -4 30 -2 32
29 33 17 1 78 2 134 4 56 2 109 7 119 13 15 9 15 11 -5 31 -20 20 -31 22 -122
20 -55 -2 -101 -4 -102 -5z"/>
<path d="M866 3573 c-2 -10 -8 -51 -11 -92 -12 -129 -54 -208 -51 -96 l1 57
-43 15 c-39 13 -46 13 -67 -1 -34 -22 -43 -59 -36 -143 1 -7 10 -22 20 -32 23
-23 55 -18 75 11 9 12 16 16 21 9 10 -18 44 -13 57 9 12 18 13 18 25 -11 18
-43 41 -48 70 -15 20 23 26 26 39 15 29 -24 65 -20 97 12 27 27 31 29 47 14
54 -49 135 30 104 103 -14 34 -56 52 -83 35 -9 -5 -28 -33 -42 -62 -33 -67
-60 -94 -83 -85 -15 6 -17 14 -12 51 9 67 25 89 26 35 0 -40 1 -42 21 -32 23
13 24 54 0 83 -32 39 -74 9 -96 -68 -9 -29 -22 -60 -30 -71 -14 -19 -14 -19
-16 1 -1 11 0 49 1 85 5 190 6 184 -12 188 -9 2 -19 -5 -22 -15z m308 -139
c16 -41 -2 -110 -23 -89 -15 15 -20 57 -10 83 10 26 24 29 33 6z m-420 -51
c-1 -16 -2 -36 -3 -45 -1 -9 -8 -24 -17 -33 -14 -13 -19 -14 -25 -3 -15 22
-10 92 8 117 14 22 17 22 28 8 7 -9 11 -29 9 -44z"/>
<path d="M1856 3568 c-9 -12 -16 -33 -16 -45 0 -16 -6 -23 -20 -23 -11 0 -20
-4 -20 -10 0 -5 7 -10 15 -10 13 0 15 -16 14 -107 -3 -110 4 -129 36 -103 10
8 14 35 13 93 0 120 -1 117 28 117 14 0 23 4 19 10 -3 6 -15 10 -26 10 -21 0
-26 34 -8 60 8 12 9 9 5 -12 -5 -20 -2 -28 7 -28 20 0 36 21 29 39 -13 37 -54
41 -76 9z"/>
<path d="M2543 3530 c-4 -16 -7 -17 -19 -5 -16 16 -74 12 -85 -6 -10 -17 0
-39 20 -40 9 0 29 -2 46 -2 29 -2 29 -3 27 -47 -2 -25 -8 -60 -14 -79 -9 -28
-12 -31 -20 -17 -5 9 -8 37 -6 64 3 41 1 47 -17 47 -16 0 -21 -8 -25 -48 -10
-81 29 -134 69 -94 10 10 14 9 22 -5 22 -39 65 -14 93 52 15 37 74 105 83 97
6 -7 -14 -45 -43 -80 -30 -36 -30 -53 -2 -60 l22 -6 -25 -20 c-59 -46 -76
-151 -24 -151 68 0 108 48 110 132 1 47 -1 56 -15 53 -9 -2 -23 1 -31 6 -11 7
-10 11 7 23 28 20 57 82 49 106 -14 44 -79 29 -129 -30 -14 -18 -26 -39 -26
-48 0 -9 -7 -26 -15 -36 -16 -22 -18 -18 -17 44 1 96 1 100 21 100 28 0 37 20
13 27 -11 2 -22 13 -25 24 -7 25 -37 25 -44 -1z m155 -304 c-12 -35 -36 -66
-51 -66 -15 0 0 58 24 92 26 36 42 21 27 -26z"/>
<path d="M3228 3533 c-44 -11 -19 -64 26 -56 36 7 52 29 36 48 -12 15 -29 17
-62 8z"/>
<path d="M1255 3454 c-15 -16 -21 -106 -9 -138 12 -30 41 -18 48 19 4 19 11
37 16 40 5 3 7 -1 4 -9 -8 -21 14 -56 35 -56 19 0 71 52 71 71 0 5 11 4 24 -2
26 -12 46 -46 39 -67 -7 -17 -23 -5 -23 18 0 23 -13 32 -34 24 -19 -7 -21 -45
-4 -62 19 -19 73 -14 93 8 24 27 12 66 -28 90 l-32 20 27 0 c32 0 64 28 49 43
-7 7 -26 6 -58 -3 -26 -7 -55 -14 -64 -16 -11 -3 -15 -12 -12 -23 6 -24 -27
-77 -37 -61 -4 7 -5 27 -3 46 4 29 2 34 -15 34 -11 0 -30 -12 -41 -27 -12 -16
-19 -21 -17 -13 15 53 15 68 1 74 -8 3 -21 -2 -30 -10z"/>
<path d="M1701 3444 c-32 -40 -31 -89 1 -116 53 -46 116 6 109 90 -2 21 -40
52 -65 52 -15 0 -33 -11 -45 -26z m63 -10 c9 -24 7 -67 -4 -84 -24 -35 -48 53
-25 91 9 14 22 11 29 -7z"/>
<path d="M2947 3453 c-8 -10 -23 -40 -32 -68 -9 -27 -23 -57 -32 -65 -13 -13
-14 -8 -11 45 2 42 -1 60 -9 60 -7 0 -19 9 -28 20 -14 19 -16 19 -29 2 -8 -10
-12 -27 -9 -37 6 -23 19 -26 26 -7 3 6 5 -8 5 -33 -1 -57 9 -90 28 -90 22 0
64 30 64 47 0 12 3 12 22 -1 44 -31 84 -14 106 44 25 67 -56 132 -101 83z m57
-19 c16 -41 -2 -110 -23 -89 -15 15 -20 57 -10 83 10 26 24 29 33 6z"/>
<path d="M3337 3452 c-10 -10 -28 -45 -42 -78 -27 -65 -28 -64 -29 16 -1 48
-4 55 -21 55 -16 0 -21 -8 -25 -48 -10 -86 36 -140 73 -87 14 21 15 21 21 -4
9 -37 41 -51 72 -31 13 8 24 20 24 25 0 6 8 5 19 -1 10 -7 26 -9 35 -6 22 9
60 93 51 115 -5 13 -12 5 -27 -30 -11 -27 -25 -48 -30 -48 -5 0 -7 25 -6 56
l3 56 -40 14 c-52 18 -59 18 -78 -4z m66 -70 c-1 -54 -19 -93 -39 -85 -13 5
-15 16 -12 59 7 88 53 112 51 26z"/>
<path d="M3077 3453 c-11 -10 -8 -87 4 -122 11 -32 46 -50 69 -36 17 10 42 73
47 118 4 28 1 37 -10 37 -10 0 -17 -15 -21 -47 -3 -27 -10 -55 -16 -63 -13
-21 -32 35 -28 83 3 32 1 37 -18 37 -11 0 -24 -3 -27 -7z"/>
<path d="M369 3008 c-10 -18 -8 -24 10 -39 25 -20 47 -16 54 10 12 46 -42 70
-64 29z"/>
<path d="M3486 3014 c-31 -30 -8 -60 40 -55 19 2 23 40 7 56 -18 19 -28 19
-47 -1z"/>
<path d="M3684 2702 c95 -188 172 -422 191 -582 4 -30 11 -84 16 -120 8 -65 8
-65 3 15 -5 87 -9 121 -26 205 -10 54 -53 211 -65 240 -3 8 -7 20 -9 25 -15
57 -137 309 -154 320 -6 4 14 -42 44 -103z"/>
<path d="M618 2686 c-3 -14 -6 -70 -7 -122 -4 -205 68 -301 287 -379 l97 -34
-55 4 c-71 6 -188 39 -252 71 -27 14 -52 23 -55 20 -3 -2 1 -22 7 -43 56 -173
148 -227 400 -233 l55 -2 -45 -12 c-63 -17 -171 -18 -260 -2 -41 7 -77 12 -79
10 -2 -1 7 -18 20 -36 82 -120 135 -158 223 -162 51 -3 148 14 200 34 48 18
41 3 -11 -23 -75 -39 -163 -62 -248 -66 l-30 -2 47 -43 c65 -60 111 -80 183
-80 65 0 137 27 222 84 25 17 47 29 50 27 10 -11 -108 -103 -176 -137 l-75
-37 55 -21 c143 -53 264 -71 457 -68 142 3 152 2 147 -15 -59 -183 -80 -419
-51 -550 26 -117 59 -157 136 -162 30 -2 30 9 6 98 -9 33 -19 96 -23 140 -6
80 1 100 12 35 3 -19 15 -68 26 -108 40 -143 62 -172 131 -172 21 0 38 1 38 3
0 1 -13 34 -28 72 -37 91 -74 245 -60 245 3 0 28 -60 57 -132 67 -171 69 -173
131 -172 28 0 53 3 56 7 3 3 -10 32 -29 64 -49 82 -87 159 -102 210 -7 23 -12
43 -10 43 1 0 28 -46 59 -102 79 -145 110 -179 166 -184 35 -4 51 0 70 16 22
18 23 22 10 33 -30 24 -98 113 -128 167 -32 57 -71 149 -49 116 99 -151 197
-256 237 -256 46 0 104 60 70 72 -21 7 -125 116 -159 168 -62 93 -97 187 -115
317 l-4 31 107 -4 c190 -6 372 48 540 160 l44 29 -39 20 c-62 31 -184 108
-184 116 0 4 28 -6 63 -23 52 -26 74 -31 137 -31 53 0 86 5 112 18 38 19 108
82 108 96 0 5 -28 12 -62 16 -60 7 -168 38 -198 56 -10 6 0 7 28 4 191 -26
308 20 373 147 19 37 19 39 2 35 -74 -21 -292 -31 -308 -15 -3 3 32 10 77 17
177 27 269 93 312 225 9 27 15 50 13 52 -2 2 -37 -11 -78 -30 -70 -32 -214
-76 -248 -76 -9 0 24 17 74 37 190 77 261 167 272 345 3 48 3 88 0 88 -4 0
-29 -17 -57 -38 -83 -63 -225 -137 -415 -217 -16 -7 -70 -30 -120 -50 -186
-78 -286 -137 -361 -214 -53 -56 -114 -159 -114 -194 0 -14 18 -38 49 -64 75
-65 106 -151 87 -243 -9 -42 -27 -90 -33 -90 -3 0 -22 13 -42 30 -36 28 -77
43 -236 89 -126 36 -192 95 -256 227 -40 83 -115 163 -212 228 -119 79 -174
103 -482 211 -99 34 -205 73 -235 85 -111 44 -210 118 -286 214 l-31 39 -5
-27z"/>
<path d="M32 2190 c0 -14 2 -19 5 -12 2 6 2 18 0 25 -3 6 -5 1 -5 -13z"/>
<path d="M3890 1890 c0 -5 5 -10 11 -10 5 0 7 5 4 10 -3 6 -8 10 -11 10 -2 0
-4 -4 -4 -10z"/>
<path d="M1 1854 c0 -11 3 -14 6 -6 3 7 2 16 -1 19 -3 4 -6 -2 -5 -13z"/>
<path d="M3894 1841 c1 -32 8 -32 13 -1 1 10 -1 21 -6 24 -5 3 -8 -7 -7 -23z"/>
<path d="M1 1814 c0 -11 3 -14 6 -6 3 7 2 16 -1 19 -3 4 -6 -2 -5 -13z"/>
<path d="M2337 1789 c-9 -6 -17 -19 -17 -29 0 -21 30 -42 46 -32 35 23 8 81
-29 61z"/>
<path d="M3888 1715 c-1 -35 0 -61 4 -57 9 9 15 122 6 122 -3 0 -8 -29 -10
-65z"/>
<path d="M1 1734 c0 -11 3 -14 6 -6 3 7 2 16 -1 19 -3 4 -6 -2 -5 -13z"/>
<path d="M12 1635 c0 -16 2 -22 5 -12 2 9 2 23 0 30 -3 6 -5 -1 -5 -18z"/>
<path d="M3879 1608 c-3 -22 -1 -34 4 -29 5 5 7 21 5 37 -3 27 -4 26 -9 -8z"/>
<path d="M22 1560 c0 -14 2 -19 5 -12 2 6 2 18 0 25 -3 6 -5 1 -5 -13z"/>
<path d="M3861 1494 c-6 -37 -10 -68 -8 -71 3 -2 10 26 17 62 7 36 10 68 8 70
-3 3 -10 -25 -17 -61z"/>
<path d="M32 1510 c0 -14 2 -19 5 -12 2 6 2 18 0 25 -3 6 -5 1 -5 -13z"/>
<path d="M37 1460 c3 -11 7 -20 9 -20 2 0 4 9 4 20 0 11 -4 20 -9 20 -5 0 -7
-9 -4 -20z"/>
<path d="M56 1390 c4 -19 11 -44 15 -55 6 -14 7 -9 3 15 -4 19 -11 44 -15 55
-6 14 -7 9 -3 -15z"/>
<path d="M3841 1394 c0 -11 3 -14 6 -6 3 7 2 16 -1 19 -3 4 -6 -2 -5 -13z"/>
<path d="M3831 1354 c0 -11 3 -14 6 -6 3 7 2 16 -1 19 -3 4 -6 -2 -5 -13z"/>
<path d="M85 1286 c18 -85 128 -322 212 -454 95 -149 250 -325 391 -443 77
-64 98 -70 27 -7 -304 268 -476 509 -600 838 -20 52 -33 82 -30 66z"/>
<path d="M3811 1293 c-1 -6 -4 -20 -7 -30 -5 -17 -5 -17 6 0 6 10 9 23 6 30
-3 9 -5 9 -5 0z"/>
<path d="M3776 1195 c-9 -26 -7 -32 5 -12 6 10 9 21 6 23 -2 3 -7 -2 -11 -11z"/>
<path d="M3742 1105 c-17 -37 -14 -45 4 -12 9 16 14 31 11 33 -2 2 -9 -7 -15
-21z"/>
<path d="M3645 919 c-4 -6 -5 -12 -2 -15 2 -3 7 2 10 11 7 17 1 20 -8 4z"/>
<path d="M3600 840 c-6 -11 -8 -20 -6 -20 3 0 10 9 16 20 6 11 8 20 6 20 -3 0
-10 -9 -16 -20z"/>
<path d="M3569 793 c-13 -16 -12 -17 4 -4 16 13 21 21 13 21 -2 0 -10 -8 -17
-17z"/>
<path d="M3519 723 c-13 -16 -12 -17 4 -4 16 13 21 21 13 21 -2 0 -10 -8 -17
-17z"/>
<path d="M3489 683 c-13 -16 -12 -17 4 -4 16 13 21 21 13 21 -2 0 -10 -8 -17
-17z"/>
<path d="M3424 608 l-29 -33 33 29 c30 28 37 36 29 36 -2 0 -16 -15 -33 -32z"/>
<path d="M3361 540 c-13 -11 -19 -20 -14 -20 6 0 18 9 28 20 23 25 17 25 -14
0z"/>
<path d="M1004 215 c0 -42 2 -45 26 -44 21 2 22 2 4 6 -16 3 -20 10 -17 28 3
13 1 30 -4 39 -6 11 -9 2 -9 -29z"/>
<path d="M1108 252 c-23 -5 -34 -48 -18 -67 31 -38 93 1 71 44 -12 22 -29 29
-53 23z m42 -44 c0 -24 -26 -34 -45 -18 -19 16 -19 25 1 45 19 19 44 4 44 -27z"/>
<path d="M1207 253 c-8 -13 -6 -83 2 -83 4 0 7 14 6 31 l-2 31 18 -23 c10 -13
19 -27 19 -31 0 -5 5 -8 10 -8 6 0 9 21 9 48 -2 45 -2 45 -8 12 l-7 -35 -21
33 c-11 19 -23 30 -26 25z"/>
<path d="M1319 259 c-1 -2 -2 -23 -4 -46 -2 -41 -1 -43 26 -43 35 0 55 30 39
60 -6 11 -15 20 -20 20 -4 0 -15 3 -24 6 -9 3 -16 5 -17 3z m51 -50 c0 -23
-29 -38 -39 -20 -5 7 -6 23 -3 36 3 21 7 23 23 14 11 -5 19 -19 19 -30z"/>
<path d="M1439 241 c-21 -16 -22 -22 -11 -45 15 -33 56 -36 72 -5 14 25 8 44
-19 58 -15 8 -24 7 -42 -8z m45 -7 c18 -18 6 -54 -19 -54 -24 0 -36 33 -18 52
19 22 18 22 37 2z"/>
<path d="M1549 260 c-5 -29 -3 -82 3 -86 4 -3 8 7 8 23 l0 28 25 -30 c19 -24
25 -26 26 -12 5 55 -2 90 -10 47 l-6 -35 -22 35 c-13 19 -23 33 -24 30z"/>
<path d="M1720 250 c-10 -53 -2 -100 10 -64 4 10 13 19 21 19 20 0 24 41 5 48
-19 7 -22 -9 -3 -16 9 -4 8 -8 -3 -16 -12 -8 -16 -5 -21 17 -4 15 -8 20 -9 12z"/>
<path d="M1820 260 c-8 -17 -8 -90 0 -85 6 3 10 12 10 20 0 7 8 12 18 11 9 -2
17 -8 17 -14 0 -6 3 -13 6 -17 4 -3 9 12 11 35 2 23 0 44 -4 46 -7 5 -12 -10
-9 -28 0 -5 -8 -8 -18 -8 -12 0 -21 8 -24 23 -2 12 -5 20 -7 17z"/>
<path d="M1948 253 c-23 -6 -34 -49 -18 -68 26 -32 81 -11 75 28 -4 20 -24 48
-34 46 -3 -1 -14 -3 -23 -6z m42 -39 c0 -29 -24 -41 -45 -24 -19 16 -19 25 0
44 21 20 45 9 45 -20z"/>
<path d="M2049 247 c6 -6 11 -26 11 -45 0 -18 4 -31 9 -28 5 3 7 19 5 36 -2
16 1 30 6 30 6 0 10 4 10 9 0 5 -12 9 -26 9 -18 0 -22 -4 -15 -11z"/>
<path d="M2146 245 c-19 -19 -20 -29 -6 -56 16 -28 58 -25 72 6 9 21 8 28 -7
45 -10 11 -20 18 -23 16 -2 -3 3 -12 12 -21 18 -19 6 -55 -19 -55 -25 0 -37
36 -19 55 9 9 14 18 11 21 -2 3 -12 -2 -21 -11z"/>
<path d="M2319 244 c-11 -14 -10 -18 6 -30 10 -8 23 -14 28 -14 4 0 5 -5 2
-10 -4 -6 -16 -8 -27 -4 -14 4 -18 2 -14 -5 11 -17 46 -13 53 6 4 9 2 18 -4
20 -5 2 -19 11 -29 19 -18 15 -18 15 9 11 22 -3 25 -2 16 9 -15 18 -24 18 -40
-2z"/>
<path d="M2469 255 c-1 -3 -2 -11 -3 -17 0 -7 -12 -15 -25 -16 -14 -2 -21 0
-17 6 4 6 2 13 -4 17 -6 4 -10 -10 -9 -37 0 -38 2 -41 11 -20 12 25 38 30 38
8 0 -8 4 -17 9 -20 5 -4 9 14 9 39 0 38 -5 59 -9 40z"/>
<path d="M2550 252 c-46 -14 -41 -82 6 -82 36 0 56 26 42 55 -12 27 -26 34
-48 27z m38 -40 c4 -28 -24 -40 -45 -19 -21 21 -9 49 19 45 15 -2 24 -11 26
-26z"/>
<path d="M2675 252 c-32 -6 -45 -30 -33 -58 15 -33 61 -33 75 -1 14 30 -12 66
-42 59z m30 -22 c11 -17 -6 -50 -25 -50 -19 0 -36 33 -25 50 3 5 15 10 25 10
10 0 22 -5 25 -10z"/>
<path d="M2760 249 c0 -5 5 -7 10 -4 6 4 10 -10 10 -34 0 -23 4 -41 8 -41 5 0
8 16 7 35 -1 19 2 35 6 35 21 0 6 16 -16 18 -14 1 -25 -3 -25 -9z"/>
<path d="M2863 253 c-22 -8 -14 -33 13 -43 30 -12 22 -34 -9 -24 -17 5 -19 3
-11 -6 16 -16 48 -9 52 13 2 11 -6 20 -22 27 -34 13 -33 24 1 15 23 -5 25 -4
14 9 -14 17 -18 18 -38 9z"/>
</g>
</svg>
